<svg width="140" height="140" viewBox="0 0 140 140" fill="none" xmlns="http://www.w3.org/2000/svg">
<circle cx="70" cy="70" r="70" fill="#D9D9D9"/>
<mask id="mask0_849_2291" style="mask-type:luminance" maskUnits="userSpaceOnUse" x="29" y="88" width="11" height="4">
<path d="M29 88.3232H39.4236V91.401H29V88.3232Z" fill="white"/>
</mask>
<g mask="url(#mask0_849_2291)">
<path d="M29.0273 89.3241V90.4903C29.0273 90.8269 29.3468 91.1121 29.7229 91.1121H39.0919V88.7024H29.7229C29.3468 88.7024 29.0273 88.9875 29.0273 89.3241Z" fill="#999999"/>
</g>
<mask id="mask1_849_2291" style="mask-type:luminance" maskUnits="userSpaceOnUse" x="75" y="30" width="4" height="12">
<path d="M75.0352 30H78.1129V41.2772H75.0352V30Z" fill="white"/>
</mask>
<g mask="url(#mask1_849_2291)">
<path d="M75.4727 30.6939V41.0041H77.8823V30.6939C77.8823 30.3177 77.5972 30 77.2606 30H76.0944C75.756 30 75.4727 30.3177 75.4727 30.6939Z" fill="#999999"/>
</g>
<mask id="mask2_849_2291" style="mask-type:luminance" maskUnits="userSpaceOnUse" x="49" y="99" width="3" height="11">
<path d="M49.4805 99.3909H51.9125V110H49.4805V99.3909Z" fill="white"/>
</mask>
<g mask="url(#mask2_849_2291)">
<path d="M49.4961 109.306C49.4961 109.682 49.7812 110 50.1178 110H51.2857C51.6224 110 51.9075 109.682 51.9075 109.306V99.4116H49.4961V109.306Z" fill="#999999"/>
</g>
<mask id="mask3_849_2291" style="mask-type:luminance" maskUnits="userSpaceOnUse" x="29" y="75" width="11" height="4">
<path d="M29 75.5725H39.4236V78.2106H29V75.5725Z" fill="white"/>
</mask>
<g mask="url(#mask3_849_2291)">
<path d="M29.0273 76.3454V77.5116C29.0273 77.8482 29.3468 78.1333 29.7229 78.1333H39.0919V75.7236H29.7229C29.3468 75.7236 29.0273 76.0087 29.0273 76.3454Z" fill="#999999"/>
</g>
<mask id="mask4_849_2291" style="mask-type:luminance" maskUnits="userSpaceOnUse" x="49" y="30" width="4" height="12">
<path d="M49.0977 30H52.1754V41.2772H49.0977V30Z" fill="white"/>
</mask>
<g mask="url(#mask4_849_2291)">
<path d="M49.4961 30.6939V41.0041H51.9075V30.6939C51.9075 30.3177 51.6224 30 51.2857 30H50.1178C49.7812 30 49.4961 30.3177 49.4961 30.6939Z" fill="#999999"/>
</g>
<mask id="mask5_849_2291" style="mask-type:luminance" maskUnits="userSpaceOnUse" x="62" y="99" width="3" height="11">
<path d="M62.4805 99.3909H64.9125V110H62.4805V99.3909Z" fill="white"/>
</mask>
<g mask="url(#mask5_849_2291)">
<path d="M62.4844 109.306C62.4844 109.682 62.7695 110 63.1061 110H64.2723C64.6106 110 64.8958 109.682 64.8958 109.306V99.4116H62.4844V109.306Z" fill="#999999"/>
</g>
<mask id="mask6_849_2291" style="mask-type:luminance" maskUnits="userSpaceOnUse" x="62" y="30" width="3" height="12">
<path d="M62.2852 30H64.9232V41.2772H62.2852V30Z" fill="white"/>
</mask>
<g mask="url(#mask6_849_2291)">
<path d="M62.4844 30.6939V41.0041H64.8958V30.6939C64.8958 30.3177 64.6106 30 64.2723 30H63.1061C62.7695 30 62.4844 30.3177 62.4844 30.6939Z" fill="#999999"/>
</g>
<mask id="mask7_849_2291" style="mask-type:luminance" maskUnits="userSpaceOnUse" x="29" y="49" width="11" height="4">
<path d="M29 49.6311H39.4236V52.2692H29V49.6311Z" fill="white"/>
</mask>
<g mask="url(#mask7_849_2291)">
<path d="M29.0273 50.3886V51.5531C29.0273 51.8897 29.3468 52.1748 29.7229 52.1748H39.0919V49.7668H29.7229C29.3468 49.7668 29.0273 50.052 29.0273 50.3886Z" fill="#999999"/>
</g>
<mask id="mask8_849_2291" style="mask-type:luminance" maskUnits="userSpaceOnUse" x="29" y="62" width="11" height="4">
<path d="M29 62.3818H39.4236V65.4596H29V62.3818Z" fill="white"/>
</mask>
<g mask="url(#mask8_849_2291)">
<path d="M29.0273 63.3661V64.5323C29.0273 64.8689 29.3468 65.154 29.7229 65.154H39.0919V62.7444H29.7229C29.3468 62.7444 29.0273 63.0295 29.0273 63.3661Z" fill="#999999"/>
</g>
<mask id="mask9_849_2291" style="mask-type:luminance" maskUnits="userSpaceOnUse" x="75" y="99" width="3" height="11">
<path d="M75.457 99.3909H77.889V110H75.457V99.3909Z" fill="white"/>
</mask>
<g mask="url(#mask9_849_2291)">
<path d="M75.4746 109.306C75.4746 109.682 75.758 110 76.0963 110H77.2625C77.5992 110 77.8843 109.682 77.8843 109.306V99.4114H75.4746V109.306Z" fill="#999999"/>
</g>
<mask id="mask10_849_2291" style="mask-type:luminance" maskUnits="userSpaceOnUse" x="88" y="30" width="4" height="12">
<path d="M88.2266 30H91.3043V41.2772H88.2266V30Z" fill="white"/>
</mask>
<g mask="url(#mask10_849_2291)">
<path d="M88.457 30.6939V41.0041H90.8684V30.6939C90.8684 30.3177 90.5833 30 90.2467 30H89.0788C88.7421 30 88.457 30.3177 88.457 30.6939Z" fill="#999999"/>
</g>
<mask id="mask11_849_2291" style="mask-type:luminance" maskUnits="userSpaceOnUse" x="88" y="99" width="3" height="11">
<path d="M88.457 99.3909H90.889V110H88.457V99.3909Z" fill="white"/>
</mask>
<g mask="url(#mask11_849_2291)">
<path d="M88.4609 109.306C88.4609 109.682 88.746 110 89.0827 110H90.2506C90.5872 110 90.8723 109.682 90.8723 109.306V99.4116H88.4609V109.306Z" fill="#999999"/>
</g>
<path d="M73.2266 67.4229H81.6355V47.0498H73.2266V67.4229Z" fill="#999999"/>
<path d="M87.4033 93.3658H95.8105V72.9927H87.4033V93.3658Z" fill="#999999"/>
<path d="M87.4033 67.4229H95.8105V47.0498H87.4033V67.4229Z" fill="#999999"/>
<path d="M73.2266 93.3658H81.6355V72.9927H73.2266V93.3658Z" fill="#999999"/>
<path d="M44.8779 67.4229H53.2851V47.0498H44.8779V67.4229Z" fill="#999999"/>
<path d="M97.3301 67.9124C97.3301 68.4792 96.8681 68.9429 96.2996 68.9429H86.9872C86.3775 68.9429 85.8829 68.4465 85.8829 67.8368V46.6359C85.8829 46.0262 86.3775 45.5315 86.9872 45.5315H96.291C96.8646 45.5315 97.3301 45.997 97.3301 46.5706V67.9124ZM97.3301 93.8536C97.3301 94.4221 96.8681 94.8841 96.2996 94.8841H86.9872C86.3775 94.8841 85.8829 94.3895 85.8829 93.7798V72.5789C85.8829 71.9691 86.3775 71.4745 86.9872 71.4745H96.291C96.8646 71.4745 97.3301 71.9399 97.3301 72.5119V93.8536ZM83.1555 67.8368C83.1555 68.4465 82.6591 68.9429 82.0494 68.9429H73.0823C72.3232 68.9429 71.7066 68.3246 71.7066 67.5672V46.6273C71.7066 46.0227 72.1995 45.5315 72.8041 45.5315H82.0494C82.6591 45.5315 83.1555 46.0262 83.1555 46.6359V67.8368ZM83.1555 93.7798C83.1555 94.3895 82.6591 94.8841 82.0494 94.8841H72.7371C72.1686 94.8841 71.7066 94.4221 71.7066 93.8536V72.5703C71.7066 71.9657 72.1995 71.4745 72.8041 71.4745H82.0494C82.6591 71.4745 83.1555 71.9691 83.1555 72.5789V93.7798ZM68.9792 67.9124C68.9792 68.4792 68.5172 68.9429 67.9487 68.9429H58.6363C58.0266 68.9429 57.5303 68.4465 57.5303 67.8368V46.6359C57.5303 46.0262 58.0266 45.5315 58.6363 45.5315H67.9384C68.512 45.5315 68.9792 45.997 68.9792 46.5706V67.9124ZM68.9792 93.5101C68.9792 94.2675 68.3626 94.8841 67.6034 94.8841H58.6363C58.0266 94.8841 57.5303 94.3895 57.5303 93.7798V72.5789C57.5303 71.9691 58.0266 71.4745 58.6363 71.4745H67.9384C68.512 71.4745 68.9792 71.9399 68.9792 72.5119V93.5101ZM54.8029 67.8368C54.8029 68.4465 54.3082 68.9429 53.6985 68.9429H44.3862C43.8177 68.9429 43.3557 68.4792 43.3557 67.9124V46.6273C43.3557 46.0227 43.8469 45.5315 44.4532 45.5315H53.6985C54.3082 45.5315 54.8029 46.0262 54.8029 46.6359V67.8368ZM54.8029 93.7798C54.8029 94.3895 54.3082 94.8841 53.6985 94.8841H44.3862C43.8177 94.8841 43.3557 94.4221 43.3557 93.8536V72.5703C43.3557 71.9657 43.8469 71.4745 44.4532 71.4745H53.6985C54.3082 71.4745 54.8029 71.9691 54.8029 72.5789V93.7798ZM95.2914 42.5225H45.3944C42.7563 42.5225 40.6094 44.6676 40.6094 47.304V93.1117C40.6094 95.748 42.7563 97.8932 45.3944 97.8932H95.2914C97.9295 97.8932 100.076 95.748 100.076 93.1117V47.304C100.076 44.6676 97.9295 42.5225 95.2914 42.5225Z" fill="#999999"/>
<path d="M44.8779 93.3658H53.2851V72.9927H44.8779V93.3658Z" fill="#999999"/>
<path d="M59.0518 93.3658H67.4607V72.9927H59.0518V93.3658Z" fill="#999999"/>
<path d="M59.0518 67.4229H67.4607V47.0498H59.0518V67.4229Z" fill="#999999"/>
<mask id="mask12_849_2291" style="mask-type:luminance" maskUnits="userSpaceOnUse" x="101" y="62" width="11" height="4">
<path d="M101.418 62.3818H111.962V65.4596H101.418V62.3818Z" fill="white"/>
</mask>
<g mask="url(#mask12_849_2291)">
<path d="M111.241 62.7441H101.598V65.1538H111.241C111.619 65.1538 111.937 64.8687 111.937 64.5321V63.3659C111.937 63.0292 111.619 62.7441 111.241 62.7441Z" fill="#999999"/>
</g>
<mask id="mask13_849_2291" style="mask-type:luminance" maskUnits="userSpaceOnUse" x="101" y="75" width="11" height="4">
<path d="M101.418 75.5725H111.962V78.2106H101.418V75.5725Z" fill="white"/>
</mask>
<g mask="url(#mask13_849_2291)">
<path d="M111.241 75.7236H101.598V78.1333H111.241C111.619 78.1333 111.937 77.8482 111.937 77.5116V76.3454C111.937 76.0087 111.619 75.7236 111.241 75.7236Z" fill="#999999"/>
</g>
<mask id="mask14_849_2291" style="mask-type:luminance" maskUnits="userSpaceOnUse" x="101" y="49" width="11" height="4">
<path d="M101.418 49.6316H111.962V52.2697H101.418V49.6316Z" fill="white"/>
</mask>
<g mask="url(#mask14_849_2291)">
<path d="M111.241 49.7673H101.598V52.1753H111.241C111.619 52.1753 111.937 51.8919 111.937 51.5535V50.3891C111.937 50.0524 111.619 49.7673 111.241 49.7673Z" fill="#999999"/>
</g>
<mask id="mask15_849_2291" style="mask-type:luminance" maskUnits="userSpaceOnUse" x="101" y="88" width="11" height="4">
<path d="M101.418 88.3232H111.962V91.401H101.418V88.3232Z" fill="white"/>
</mask>
<g mask="url(#mask15_849_2291)">
<path d="M111.241 88.7026H101.598V91.1123H111.241C111.619 91.1123 111.937 90.8272 111.937 90.4906V89.3244C111.937 88.9877 111.619 88.7026 111.241 88.7026Z" fill="#999999"/>
</g>
</svg>
