<svg width="140" height="140" viewBox="0 0 140 140" fill="none" xmlns="http://www.w3.org/2000/svg">
<circle cx="70" cy="70" r="70" fill="#D9D9D9"/>
<path fill-rule="evenodd" clip-rule="evenodd" d="M102.268 57.5552H98.3003C97.3814 57.5552 96.5501 58.1529 96.2857 58.9876L95.9611 60.0353C95.6261 61.1052 96.454 61.7218 97.6201 62.0138C99.4252 62.4724 101.187 62.4689 102.948 62.0138C104.114 61.7235 104.949 61.1052 104.612 60.0353L104.282 58.9876C104.018 58.1529 103.185 57.5552 102.268 57.5552ZM100.511 51.824C99.4973 51.7931 98.6042 52.4835 98.3707 53.4797C98.0924 54.639 98.8018 55.8 99.9404 56.0765C101.084 56.3478 102.233 55.6351 102.505 54.4792C102.781 53.3199 102.074 52.1589 100.93 51.8841C100.797 51.8515 100.653 51.8309 100.511 51.824ZM100.286 48.3599C104.916 48.3599 108.672 52.1177 108.672 56.7463C108.672 58.9721 107.788 61.107 106.214 62.6802C104.645 64.2517 102.51 65.1344 100.284 65.1344C97.6888 65.1344 95.2397 63.9253 93.6545 61.873L85.8966 67.1044C84.6154 67.9666 83.3153 66.0447 84.5982 65.1774L92.5003 59.8566C92.1002 58.8657 91.8992 57.8128 91.8924 56.748C91.9009 52.1177 95.6519 48.3599 100.286 48.3599Z" fill="#999999"/>
<path fill-rule="evenodd" clip-rule="evenodd" d="M104.593 77.2771H101.4C100.655 77.2771 99.9834 77.7546 99.7721 78.4296L99.5059 79.2814C99.2397 80.1384 99.9095 80.6382 100.847 80.8735C102.304 81.2411 103.719 81.2342 105.139 80.8735C106.08 80.6348 106.754 80.1402 106.481 79.2814L106.214 78.4296C106.001 77.7563 105.337 77.2771 104.593 77.2771ZM103.178 72.6571C102.362 72.6314 101.639 73.1895 101.452 73.9933C101.229 74.9242 101.799 75.8619 102.719 76.0852C103.638 76.3085 104.566 75.728 104.789 74.7954C105.005 73.8645 104.437 72.9285 103.518 72.7052C103.405 72.6795 103.293 72.6623 103.178 72.6571ZM102.996 69.8628C106.731 69.8628 109.754 72.8924 109.754 76.6279C109.759 80.3634 106.731 83.3913 102.996 83.3913C99.712 83.3862 96.9022 81.0247 96.3372 77.7889H89.2079C87.6364 77.8095 87.6364 75.4463 89.2079 75.4669H96.332C96.897 72.2312 99.7068 69.8628 102.996 69.8628Z" fill="#999999"/>
<mask id="mask0_849_2292" style="mask-type:luminance" maskUnits="userSpaceOnUse" x="45" y="30" width="50" height="50">
<path d="M45.7734 30H94.1375V79.2967H45.7734V30Z" fill="white"/>
</mask>
<g mask="url(#mask0_849_2292)">
<path fill-rule="evenodd" clip-rule="evenodd" d="M53.2969 41.0056H57.7314C58.7619 41.0056 59.6893 41.6651 59.983 42.6011L60.354 43.7776C60.7267 44.9712 59.7958 45.6634 58.4923 45.9914C56.4742 46.4981 54.506 46.4981 52.5326 45.9914C51.2291 45.6565 50.2965 44.9712 50.676 43.7776L51.0436 42.6011C51.3407 41.6651 52.2664 41.0056 53.2969 41.0056ZM82.3102 40.2344H86.743C87.7752 40.2344 88.7009 40.8991 88.9929 41.8368L89.3673 43.0116C89.7383 44.2035 88.8091 44.8956 87.5056 45.2254C85.4875 45.7303 83.5176 45.7303 81.5459 45.2254C80.2475 44.8905 79.3149 44.2035 79.6876 43.0116L80.0552 41.8368C80.354 40.8991 81.278 40.2344 82.3102 40.2344ZM55.2565 34.5942C56.3901 34.5547 57.3914 35.3293 57.6576 36.4405C57.9599 37.7389 57.1732 39.0373 55.8972 39.3465C54.6194 39.6539 53.333 38.8553 53.0273 37.5569C52.7198 36.2653 53.5133 34.9669 54.7894 34.6578C54.9422 34.62 55.0985 34.5977 55.2565 34.5942ZM84.2699 33.8282C85.4017 33.7905 86.403 34.5633 86.6674 35.6745C86.9714 36.9678 86.1848 38.2662 84.907 38.5736C83.6292 38.8828 82.3428 38.0841 82.0388 36.7926C81.7297 35.4993 82.5215 34.2009 83.801 33.8918C83.9538 33.854 84.1136 33.8334 84.2699 33.8282ZM84.524 29.9536C79.3458 29.9536 75.1466 34.1511 75.1466 39.331C75.1466 42.4637 76.7112 45.392 79.3201 47.1318L73.5356 51.3139C73.2368 51.5337 73.0616 51.8841 73.0616 52.2516V67.5646C72.0758 67.4787 71.059 67.4375 70.0182 67.4375C68.9792 67.4375 67.9573 67.4787 66.9783 67.5646V53.021C66.9783 52.6483 66.8031 52.3048 66.506 52.085L60.7164 47.8961C63.3235 46.1631 64.8933 43.2348 64.8933 40.1022C64.8933 34.9188 60.6941 30.7196 55.5107 30.7196C50.3343 30.7196 46.1299 34.9188 46.1299 40.1022C46.1299 45.2786 50.3343 49.4779 55.5107 49.4779C56.4742 49.4779 57.4274 49.3284 58.3411 49.0416L64.6649 53.6187V67.8583C62.5902 68.1932 60.7301 68.705 59.2462 69.3473C57.9049 69.9227 56.8469 70.5839 56.2029 71.2743C54.9852 72.5831 55.1586 74.0309 56.2029 75.1112C56.8589 75.793 57.9049 76.4731 59.2462 77.0485C61.9221 78.2026 65.7606 78.9532 70.0182 78.9532C74.281 78.9532 78.1161 78.2026 80.792 77.0485C82.1333 76.4731 83.1981 75.8033 83.8405 75.1112C85.0496 73.8076 84.8796 72.3495 83.8405 71.2743C83.181 70.5925 82.1333 69.9227 80.792 69.3473C79.3029 68.705 77.4515 68.1932 75.375 67.8583V52.8458L81.7022 48.2636C82.6176 48.5573 83.5691 48.7067 84.5223 48.7119C89.7039 48.7119 93.9032 44.5144 93.9032 39.331C93.9066 34.1511 89.7074 29.9536 84.524 29.9536Z" fill="#999999"/>
</g>
<path fill-rule="evenodd" clip-rule="evenodd" d="M37.7702 58.3265H41.7341C42.6615 58.3265 43.4911 58.919 43.7504 59.7588L44.0819 60.8082C44.4168 61.8782 43.5804 62.4948 42.4159 62.7885C40.6109 63.2402 38.8556 63.2402 37.0883 62.7885C35.9222 62.4896 35.0926 61.8782 35.4293 60.8082L35.7573 59.7588C36.0201 58.9173 36.8496 58.3265 37.7702 58.3265ZM39.5271 52.5952C40.537 52.5592 41.4353 53.2513 41.6706 54.2509C41.9419 55.4067 41.2412 56.566 40.0956 56.8443C38.9518 57.1208 37.8011 56.4063 37.5314 55.247C37.2601 54.0929 37.9608 52.9284 39.1064 52.6554C39.2438 52.6176 39.3812 52.6004 39.5271 52.5952ZM39.7539 49.1328C35.1235 49.1328 31.3691 52.8838 31.3691 57.5141C31.3691 59.7451 32.2502 61.873 33.82 63.4462C35.3966 65.0229 37.5297 65.9057 39.7539 65.9057C42.3472 65.9005 44.7946 64.6983 46.3799 62.6442L54.1429 67.8705C55.4258 68.7378 56.7242 66.8159 55.443 65.9486L47.5409 60.6227C47.9342 59.6335 48.142 58.5789 48.142 57.5158C48.142 52.8821 44.3842 49.1328 39.7539 49.1328Z" fill="#999999"/>
<path fill-rule="evenodd" clip-rule="evenodd" d="M70.0173 84.5125C70.7403 84.5125 71.3208 85.0982 71.3208 85.8161C71.3208 86.5357 70.7352 87.1145 70.0173 87.1145C69.2993 87.1145 68.7188 86.5357 68.7188 85.8161C68.7206 85.093 69.2976 84.5125 70.0173 84.5125ZM74.7747 83.8152C75.4926 83.8152 76.0782 84.4009 76.0782 85.1188C76.0782 85.8384 75.4926 86.4189 74.7747 86.4189C74.0568 86.4189 73.4711 85.8384 73.4711 85.1188C73.4711 84.4009 74.0568 83.8152 74.7747 83.8152ZM65.2616 83.8152C65.9846 83.8152 66.5651 84.4009 66.5651 85.1188C66.5651 85.8384 65.9846 86.4189 65.2616 86.4189C64.5471 86.4189 63.9614 85.8384 63.9614 85.1188C63.9614 84.4009 64.5419 83.8152 65.2616 83.8152ZM55.2676 77.1377V83.2519C55.2676 83.8702 55.5389 84.4919 56.2036 85.1686C56.8631 85.8504 57.9073 86.5254 59.247 87.1008C61.9245 88.2549 65.7614 89.0106 70.019 89.0106C74.2817 89.0158 78.1186 88.2549 80.7944 87.1008C82.134 86.5254 83.1817 85.8504 83.8429 85.1686C84.5059 84.4919 84.7738 83.8702 84.7738 83.2519V77.1377C83.9168 77.8556 82.8691 78.479 81.6394 79.0115C78.6012 80.3202 74.5239 81.0845 70.0173 81.0845C65.5158 81.0845 61.4402 80.3185 58.3951 79.0097C57.1723 78.4773 56.1194 77.8556 55.2676 77.1377Z" fill="#999999"/>
<path fill-rule="evenodd" clip-rule="evenodd" d="M70.0173 94.9808C70.7403 94.9808 71.3208 95.5647 71.3208 96.2844C71.3208 97.0023 70.7403 97.5879 70.0173 97.5879C69.2993 97.5879 68.7188 97.0023 68.7188 96.2844C68.7206 95.5647 69.2976 94.9808 70.0173 94.9808ZM74.7747 94.2887C75.4926 94.2887 76.0782 94.8674 76.0782 95.5871C76.0782 96.305 75.4926 96.8906 74.7747 96.8906C74.0568 96.8906 73.4711 96.305 73.4711 95.5871C73.4711 94.8692 74.0568 94.2887 74.7747 94.2887ZM65.2616 94.2887C65.9846 94.2887 66.5651 94.8674 66.5651 95.5871C66.5651 96.305 65.9846 96.8906 65.2616 96.8906C64.5419 96.8906 63.9614 96.305 63.9614 95.5871C63.9614 94.8692 64.5471 94.2887 65.2616 94.2887ZM55.2676 87.606V93.7185C55.2676 94.3367 55.5389 94.9636 56.2036 95.6403C56.8631 96.3153 57.9073 96.9902 59.247 97.5725C61.9245 98.7266 65.7614 99.4806 70.019 99.4806C74.2817 99.4806 78.1186 98.7266 80.7944 97.5725C82.134 96.992 83.1817 96.3153 83.8429 95.6403C84.5059 94.9636 84.7738 94.3367 84.7738 93.7185V87.606C83.9168 88.329 82.8691 88.9473 81.6394 89.478C78.6012 90.7867 74.5239 91.5544 70.0173 91.5544C65.5158 91.5544 61.4402 90.7867 58.3951 89.478C57.1723 88.9473 56.1194 88.329 55.2676 87.606Z" fill="#999999"/>
<mask id="mask1_849_2292" style="mask-type:luminance" maskUnits="userSpaceOnUse" x="55" y="97" width="30" height="13">
<path d="M55.0078 97.7629H84.9056V110H55.0078V97.7629Z" fill="white"/>
</mask>
<g mask="url(#mask1_849_2292)">
<path fill-rule="evenodd" clip-rule="evenodd" d="M70.0202 105.452C70.7432 105.452 71.3237 106.033 71.3237 106.756C71.3237 107.477 70.7381 108.056 70.0202 108.056C69.3023 108.056 68.7218 107.477 68.7218 106.756C68.7235 106.033 69.3006 105.452 70.0202 105.452ZM74.7776 104.755C75.4955 104.755 76.0812 105.341 76.0812 106.06C76.0812 106.776 75.4955 107.359 74.7776 107.359C74.0597 107.359 73.474 106.778 73.474 106.06C73.474 105.335 74.0597 104.755 74.7776 104.755ZM65.2645 104.755C65.9876 104.755 66.5681 105.334 66.5681 106.06C66.5681 106.776 65.9876 107.359 65.2645 107.359C64.55 107.359 63.9644 106.778 63.9644 106.06C63.9644 105.342 64.5449 104.755 65.2645 104.755ZM55.2705 98.0774V104.192C55.2705 104.805 55.5419 105.433 56.2065 106.107C56.866 106.783 57.9103 107.463 59.2499 108.04C61.9274 109.193 65.7643 109.949 70.0219 109.949C74.2847 109.949 78.1215 109.193 80.7973 108.04C82.137 107.465 83.1846 106.783 83.8459 106.107C84.5088 105.432 84.7767 104.805 84.7767 104.192V98.0774C83.9197 98.7953 82.8721 99.4187 81.6423 99.9443C78.6041 101.26 74.5268 102.028 70.0202 102.028C65.5187 102.028 61.4431 101.262 58.398 99.9443C57.1752 99.4205 56.1224 98.7953 55.2705 98.0774Z" fill="#999999"/>
</g>
<mask id="mask2_849_2292" style="mask-type:luminance" maskUnits="userSpaceOnUse" x="30" y="70" width="23" height="15">
<path d="M30 70.5034H52.3701V84.573H30V70.5034Z" fill="white"/>
</mask>
<g mask="url(#mask2_849_2292)">
<path fill-rule="evenodd" clip-rule="evenodd" d="M35.4471 78.0481H38.6451C39.3905 78.0481 40.0568 78.5273 40.2681 79.2023L40.536 80.049C40.8057 80.9112 40.1359 81.4058 39.1947 81.6445C37.74 82.0052 36.3196 82.0052 34.8993 81.6445C33.9632 81.4058 33.2883 80.9112 33.5579 80.049L33.8241 79.2023C34.0371 78.5273 34.7018 78.0481 35.4471 78.0481ZM36.8623 73.4281C37.6764 73.3972 38.3995 73.9554 38.5918 74.7609C38.81 75.6952 38.2466 76.6278 37.3209 76.851C36.4003 77.076 35.4729 76.499 35.2548 75.5629C35.0384 74.6321 35.6017 73.7012 36.5223 73.4779C36.6339 73.4504 36.7507 73.4333 36.8623 73.4281ZM37.0495 70.6355C33.3123 70.6355 30.2861 73.6617 30.2861 77.3938C30.2861 81.1293 33.3123 84.1572 37.0495 84.1572C40.3334 84.1572 43.1363 81.7939 43.6996 78.5582H50.8306C52.4021 78.5805 52.4021 76.2173 50.8306 76.2327H43.7048C43.1414 72.997 40.3334 70.6355 37.0495 70.6355Z" fill="#999999"/>
</g>
</svg>
