<svg width="140" height="140" viewBox="0 0 140 140" fill="none" xmlns="http://www.w3.org/2000/svg">
<circle cx="70" cy="70" r="70" fill="#D9D9D9"/>
<mask id="mask0_849_2293" style="mask-type:luminance" maskUnits="userSpaceOnUse" x="30" y="30" width="80" height="80">
<path d="M30 30H110V110H30V30Z" fill="white"/>
</mask>
<g mask="url(#mask0_849_2293)">
<path fill-rule="evenodd" clip-rule="evenodd" d="M79.5605 101.462C77.5459 101.462 76.5343 103.905 77.9598 105.328C78.2226 105.591 78.2226 106.017 77.9598 106.28L76.5119 107.726C76.2492 107.989 75.8249 107.989 75.5622 107.726C74.1366 106.302 71.696 107.312 71.696 109.328C71.696 109.699 71.3938 110 71.0228 110H68.9772C68.6062 110 68.304 109.699 68.304 109.328C68.304 107.31 65.8651 106.3 64.4378 107.726C64.1751 107.989 63.7508 107.989 63.4881 107.726L62.0402 106.28C61.7774 106.017 61.7774 105.591 62.0402 105.328C63.4657 103.905 62.4541 101.462 60.4395 101.462C60.0685 101.462 59.7662 101.162 59.7662 100.791V98.7434C59.7662 98.3724 60.0685 98.0719 60.4395 98.0719C62.4541 98.0719 63.4657 95.6296 62.0402 94.2058C61.7774 93.943 61.7774 93.517 62.0402 93.2543L63.4881 91.8081C63.7508 91.5453 64.1751 91.5453 64.4378 91.8081C65.8634 93.2319 68.304 92.222 68.304 90.2057C68.304 89.8347 68.6062 89.5341 68.9772 89.5341H71.0228C71.3938 89.5341 71.696 89.8347 71.696 90.2057C71.696 92.2203 74.1366 93.2319 75.5622 91.8081C75.8249 91.5453 76.2492 91.5453 76.5119 91.8081L77.9598 93.2543C78.2226 93.517 78.2226 93.943 77.9598 94.2058C76.5343 95.6296 77.5459 98.0719 79.5605 98.0719C79.9315 98.0719 80.2338 98.3724 80.2338 98.7434V100.791C80.2338 101.162 79.9315 101.462 79.5605 101.462ZM85.1132 48.8548C81.9273 48.8548 80.33 52.7141 82.5816 54.9658C82.9973 55.3814 82.9973 56.0547 82.5816 56.4686L80.2939 58.7563C79.88 59.1719 79.2067 59.1719 78.7911 58.7563C76.5394 56.5046 72.6802 58.1019 72.6802 61.2879C72.6802 61.8753 72.2044 62.3511 71.617 62.3511H68.383C67.7956 62.3511 67.3198 61.8753 67.3198 61.2879C67.3198 58.0985 63.464 56.5012 61.2089 58.7563C60.7933 59.1719 60.12 59.1719 59.7061 58.7563L57.4184 56.4686C57.0027 56.0547 57.0027 55.3814 57.4184 54.9658C59.67 52.7141 58.0727 48.8548 54.8868 48.8548C54.2994 48.8548 53.8236 48.3791 53.8236 47.7934V44.5576C53.8236 43.9702 54.2994 43.4945 54.8868 43.4945C58.0727 43.4945 59.67 39.637 57.4184 37.3836C57.0027 36.9697 57.0027 36.2964 57.4184 35.8808L59.7061 33.593C60.12 33.1791 60.7933 33.1791 61.2089 33.593C63.4606 35.8464 67.3198 34.2474 67.3198 31.0631C67.3198 30.4758 67.7956 30 68.383 30H71.617C72.2044 30 72.6802 30.4758 72.6802 31.0631C72.6802 34.2474 76.5394 35.8464 78.7911 33.593C79.2067 33.1791 79.88 33.1791 80.2939 33.593L82.5816 35.8808C82.9973 36.2964 82.9973 36.9697 82.5816 37.3836C80.33 39.637 81.9273 43.4945 85.1132 43.4945C85.7006 43.4945 86.1747 43.9702 86.1747 44.5576V47.7934C86.1747 48.3791 85.7006 48.8548 85.1132 48.8548ZM69.9991 38.4038C65.7071 38.4038 62.2274 41.8835 62.2274 46.1755C62.2274 50.4676 65.7071 53.9473 69.9991 53.9473C74.2929 53.9473 77.7726 50.4676 77.7726 46.1755C77.7726 41.8835 74.2929 38.4038 69.9991 38.4038ZM99.7671 43.4258C101.285 43.4258 102.517 44.6555 102.517 46.1755C102.517 47.2765 101.869 48.2262 100.933 48.6659V81.6696L102.81 79.7924C103.266 79.3373 104.004 79.3373 104.461 79.7924C104.916 80.2475 104.916 80.9861 104.461 81.4429L100.591 85.3108C100.136 85.7659 99.3978 85.7659 98.9427 85.3108L95.0748 81.4429C94.618 80.9878 94.618 80.2475 95.0748 79.7924C95.53 79.3373 96.2685 79.3373 96.7236 79.7924L98.6009 81.6696V48.6659C98.0186 48.3928 97.548 47.9222 97.2767 47.3417H91.2654C90.6213 47.3417 90.0992 46.8196 90.0992 46.1755C90.0992 45.5315 90.6213 45.0076 91.2654 45.0076H97.2767C97.7146 44.0733 98.6661 43.4258 99.7671 43.4258ZM42.7233 45.0076H48.7329C49.3787 45.0076 49.9008 45.5315 49.9008 46.1755C49.9008 46.8196 49.3787 47.3417 48.7329 47.3417H42.7233C42.4502 47.9222 41.9814 48.3928 41.3991 48.6659V81.6696L43.2764 79.7924C43.7315 79.3373 44.47 79.3373 44.9252 79.7924C45.382 80.2475 45.382 80.9861 44.9252 81.4429L41.0573 85.3108C40.6022 85.7659 39.8637 85.7659 39.4085 85.3108L35.539 81.4429C35.0838 80.9878 35.0838 80.2475 35.539 79.7924C35.9958 79.3373 36.7344 79.3373 37.1895 79.7924L39.0667 81.6696V48.6659C38.1307 48.2262 37.4832 47.2765 37.4832 46.1755C37.4832 44.6555 38.7147 43.4258 40.2329 43.4258C41.3339 43.4258 42.2854 44.0733 42.7233 45.0076ZM73.0426 79.7924C73.4994 79.3373 74.238 79.3373 74.6931 79.7924C75.1482 80.2475 75.1482 80.9861 74.6931 81.4429L70.8253 85.3108C70.3701 85.7659 69.6299 85.7659 69.1747 85.3108L65.3069 81.4429C64.8518 80.9878 64.8518 80.2475 65.3069 79.7924C65.762 79.3373 66.5006 79.3373 66.9574 79.7924L68.833 81.6696V72.3659C67.8986 71.9262 67.2494 70.9764 67.2494 69.8738C67.2494 68.3555 68.4809 67.124 70.0009 67.124C71.5191 67.124 72.7506 68.3555 72.7506 69.8738C72.7506 70.9764 72.1031 71.9262 71.167 72.3659V81.6696L73.0426 79.7924ZM49.7943 101.462C47.778 101.462 46.7681 103.905 48.1919 105.328C48.4547 105.591 48.4547 106.017 48.1919 106.28L46.7457 107.726C46.483 107.989 46.057 107.989 45.7942 107.726C44.3704 106.302 41.9281 107.312 41.9281 109.328C41.9281 109.699 41.6276 110 41.2566 110H39.2093C38.8383 110 38.5378 109.699 38.5378 109.328C38.5378 107.31 36.0972 106.3 34.6716 107.726C34.4089 107.989 33.9829 107.989 33.7201 107.726L32.274 106.28C32.0112 106.017 32.0112 105.591 32.274 105.328C33.6978 103.905 32.6879 101.462 30.6715 101.462C30.3006 101.462 30 101.162 30 100.791V98.7434C30 98.3724 30.3006 98.0719 30.6715 98.0719C32.6879 98.0719 33.6978 95.6296 32.274 94.2058C32.0112 93.943 32.0112 93.517 32.274 93.2543L33.7201 91.8081C33.9829 91.5453 34.4089 91.5453 34.6716 91.8081C36.0955 93.2319 38.5378 92.222 38.5378 90.2057C38.5378 89.8347 38.8383 89.5341 39.2093 89.5341H41.2566C41.6276 89.5341 41.9281 89.8347 41.9281 90.2057C41.9281 92.2203 44.3704 93.2319 45.7942 91.8081C46.057 91.5453 46.483 91.5453 46.7457 91.8081L48.1919 93.2543C48.4547 93.517 48.4547 93.943 48.1919 94.2058C46.7681 95.6296 47.778 98.0719 49.7943 98.0719C50.1653 98.0719 50.4659 98.3724 50.4659 98.7434V100.791C50.4659 101.162 50.1653 101.462 49.7943 101.462ZM40.2329 94.7657C37.4712 94.7657 35.2315 97.0053 35.2315 99.7671C35.2315 102.529 37.4712 104.767 40.2329 104.767C42.9947 104.767 45.2326 102.529 45.2326 99.7671C45.2326 97.0053 42.9947 94.7657 40.2329 94.7657ZM109.328 101.462C107.312 101.462 106.302 103.905 107.726 105.328C107.989 105.591 107.989 106.017 107.726 106.28L106.28 107.726C106.017 107.989 105.591 107.989 105.328 107.726C103.905 106.302 101.462 107.312 101.462 109.328C101.462 109.699 101.162 110 100.791 110H98.7434C98.3724 110 98.0719 109.699 98.0719 109.328C98.0719 107.31 95.633 106.3 94.2058 107.726C93.943 107.989 93.517 107.989 93.2543 107.726L91.8081 106.28C91.5453 106.017 91.5453 105.591 91.8081 105.328C93.2319 103.905 92.222 101.462 90.2057 101.462C89.8347 101.462 89.5341 101.162 89.5341 100.791V98.7434C89.5341 98.3724 89.8347 98.0719 90.2057 98.0719C92.222 98.0719 93.2319 95.6296 91.8081 94.2058C91.5453 93.943 91.5453 93.517 91.8081 93.2543L93.2543 91.8081C93.517 91.5453 93.943 91.5453 94.2058 91.8081C95.6296 93.2319 98.0719 92.222 98.0719 90.2057C98.0719 89.8347 98.3724 89.5341 98.7434 89.5341H100.791C101.162 89.5341 101.462 89.8347 101.462 90.2057C101.462 92.2203 103.905 93.2319 105.328 91.8081C105.591 91.5453 106.017 91.5453 106.28 91.8081L107.726 93.2543C107.989 93.517 107.989 93.943 107.726 94.2058C106.302 95.6296 107.312 98.0719 109.328 98.0719C109.699 98.0719 110 98.3724 110 98.7434V100.791C110 101.162 109.699 101.462 109.328 101.462ZM99.7671 94.7657C97.0053 94.7657 94.7657 97.0053 94.7657 99.7671C94.7657 102.529 97.0053 104.767 99.7671 104.767C102.529 104.767 104.768 102.529 104.768 99.7671C104.768 97.0053 102.529 94.7657 99.7671 94.7657ZM69.9991 94.7657C67.2374 94.7657 64.9995 97.0053 64.9995 99.7671C64.9995 102.529 67.2374 104.767 69.9991 104.767C72.7609 104.767 75.0005 102.529 75.0005 99.7671C75.0005 97.0053 72.7609 94.7657 69.9991 94.7657Z" fill="#999999"/>
</g>
</svg>
